G04 PROTEUS GERBER X2 FILE*
%TF.GenerationSoftware,Labcenter,Proteus,8.9-SP2-Build28501*%
%TF.CreationDate,2020-07-12T19:41:18+00:00*%
%TF.FileFunction,Plated,1,2,PTH*%
%TF.FilePolarity,Positive*%
%TF.Part,Single*%
%TF.SameCoordinates,{dc61f2e1-3fbc-4622-b235-fc52ee95e5fb}*%
%FSLAX45Y45*%
%MOMM*%
G01*
%TA.AperFunction,ViaDrill*%
%ADD43C,0.381000*%
%TA.AperFunction,ComponentDrill*%
%ADD44C,0.812800*%
%TA.AperFunction,ComponentDrill*%
%ADD45C,1.016000*%
%TA.AperFunction,OtherDrill,Unknown*%
%ADD46C,1.016000*%
%TD.AperFunction*%
D43*
X-5095000Y-6015000D03*
X-5095857Y-6511843D03*
X-5095000Y-6965000D03*
X-5090000Y-5455000D03*
X-4680444Y-6977785D03*
X-4693999Y-6460000D03*
X-4693999Y-5950000D03*
X-4679116Y-5440000D03*
X-4278124Y-6986325D03*
X-4282819Y-6465000D03*
X-4282819Y-5930000D03*
X-3864964Y-6981630D03*
X-3860000Y-6455000D03*
X-3860000Y-5945000D03*
X-3860000Y-5418193D03*
X-4269062Y-5450000D03*
X-4220000Y-4530000D03*
X-4968508Y-4566851D03*
X-242679Y-6996025D03*
X-250950Y-6441953D03*
X-250950Y-5942083D03*
X-240000Y-5426979D03*
X+156980Y-6943532D03*
X+156980Y-6450000D03*
X+156980Y-5995000D03*
X+160920Y-5450000D03*
X+560000Y-6940000D03*
X+563676Y-6425000D03*
X+555870Y-5910000D03*
X+570876Y-5395000D03*
X+959826Y-6948228D03*
X+970935Y-6405000D03*
X+970935Y-5911638D03*
X+970935Y-5393343D03*
X+1288892Y-6155000D03*
X+1375386Y-5852093D03*
X+529Y-4648710D03*
X+388866Y-4578840D03*
X+1537712Y-4711568D03*
X+1266313Y-5652210D03*
X+1742563Y-5660566D03*
X+1295000Y-6660000D03*
X+1705000Y-5915000D03*
X+2156148Y-6011486D03*
X+2197924Y-5777539D03*
X+1830293Y-5318000D03*
X+1995503Y-6149348D03*
X+1807005Y-6705785D03*
X+1655496Y-6589504D03*
X+1518785Y-6524556D03*
X+1452151Y-5061872D03*
X+2512922Y-6000722D03*
X+1835000Y-5100000D03*
D44*
X-5735000Y-6970000D03*
X-5779000Y-5033000D03*
D45*
X-6110000Y-6254000D03*
X-5856000Y-6254000D03*
X-6110000Y-6000000D03*
X-5856000Y-6000000D03*
X-6110000Y-5746000D03*
X-5856000Y-5746000D03*
D46*
X-3265000Y-5280000D03*
X-3265000Y-5615000D03*
X-3260000Y-5980000D03*
X-3265000Y-6335000D03*
X-5725000Y-4850000D03*
X-3105000Y-6640000D03*
X-2940000Y-5975000D03*
X-2945000Y-5610000D03*
X-6045000Y-6840000D03*
X+1815000Y-4910000D03*
X-910000Y-5365000D03*
X-910000Y-6150000D03*
X-1270000Y-6420000D03*
X-900000Y-5110000D03*
X-1365000Y-5930000D03*
X-1335000Y-6170000D03*
X-910000Y-5625000D03*
X-1140000Y-6630000D03*
X-2875000Y-5315000D03*
X-5462500Y-6282500D03*
X-3100000Y-5435000D03*
X-5455000Y-6570000D03*
X-790000Y-6990000D03*
X-910000Y-5870000D03*
X-980000Y-6820000D03*
X+2005000Y-5055000D03*
M02*
